<?xml version="1.0" encoding="UTF-8" standalone="no"?>
<svg
   viewBox="0 0 24 24"
   width="512"
   height="512"
   version="1.1"
   id="svg6"
   sodipodi:docname="calendar.svg"
   inkscape:version="1.3.2 (091e20e, 2023-11-25, custom)"
   xmlns:inkscape="http://www.inkscape.org/namespaces/inkscape"
   xmlns:sodipodi="http://sodipodi.sourceforge.net/DTD/sodipodi-0.dtd"
   xmlns="http://www.w3.org/2000/svg"
   xmlns:svg="http://www.w3.org/2000/svg">
  <defs
     id="defs6" />
  <sodipodi:namedview
     id="namedview6"
     pagecolor="#ffffff"
     bordercolor="#000000"
     borderopacity="0.25"
     inkscape:showpageshadow="2"
     inkscape:pageopacity="0.0"
     inkscape:pagecheckerboard="0"
     inkscape:deskcolor="#d1d1d1"
     inkscape:zoom="0.97848663"
     inkscape:cx="48.033359"
     inkscape:cy="154.83094"
     inkscape:window-width="2880"
     inkscape:window-height="1694"
     inkscape:window-x="-11"
     inkscape:window-y="-11"
     inkscape:window-maximized="1"
     inkscape:current-layer="svg6" />
  <g
     id="_01_align_center"
     data-name="01 align center"
     style="fill:#ffffff">
    <path
       d="M21,2H18V0H16V2H8V0H6V2H3A3,3,0,0,0,0,5V24H24V5A3,3,0,0,0,21,2ZM2,5A1,1,0,0,1,3,4H21a1,1,0,0,1,1,1V8H2ZM2,22V10H22V22Z"
       id="path1"
       style="fill:#ffffff" />
    <rect
       x="15"
       y="13"
       width="2"
       height="2"
       id="rect1"
       style="fill:#ffffff" />
    <rect
       x="11"
       y="13"
       width="2"
       height="2"
       id="rect2"
       style="fill:#ffffff" />
    <rect
       x="7"
       y="13"
       width="2"
       height="2"
       id="rect3"
       style="fill:#ffffff" />
    <rect
       x="15"
       y="17"
       width="2"
       height="2"
       id="rect4"
       style="fill:#ffffff" />
    <rect
       x="11"
       y="17"
       width="2"
       height="2"
       id="rect5"
       style="fill:#ffffff" />
    <rect
       x="7"
       y="17"
       width="2"
       height="2"
       id="rect6"
       style="fill:#ffffff" />
  </g>
</svg>
