<?xml version="1.0" encoding="UTF-8" standalone="no"?>
<svg
   id="Outline"
   viewBox="0 0 24 24"
   width="512"
   height="512"
   version="1.1"
   sodipodi:docname="shopping-cart.svg"
   inkscape:version="1.3.2 (091e20e, 2023-11-25, custom)"
   xmlns:inkscape="http://www.inkscape.org/namespaces/inkscape"
   xmlns:sodipodi="http://sodipodi.sourceforge.net/DTD/sodipodi-0.dtd"
   xmlns="http://www.w3.org/2000/svg"
   xmlns:svg="http://www.w3.org/2000/svg">
  <defs
     id="defs2" />
  <sodipodi:namedview
     id="namedview2"
     pagecolor="#ffffff"
     bordercolor="#000000"
     borderopacity="0.25"
     inkscape:showpageshadow="2"
     inkscape:pageopacity="0.0"
     inkscape:pagecheckerboard="0"
     inkscape:deskcolor="#d1d1d1"
     inkscape:zoom="0.97848663"
     inkscape:cx="757.2919"
     inkscape:cy="316.30478"
     inkscape:window-width="2880"
     inkscape:window-height="1694"
     inkscape:window-x="-11"
     inkscape:window-y="-11"
     inkscape:window-maximized="1"
     inkscape:current-layer="Outline" />
  <path
     d="M22.713,4.077A2.993,2.993,0,0,0,20.41,3H4.242L4.2,2.649A3,3,0,0,0,1.222,0H1A1,1,0,0,0,1,2h.222a1,1,0,0,1,.993.883l1.376,11.7A5,5,0,0,0,8.557,19H19a1,1,0,0,0,0-2H8.557a3,3,0,0,1-2.82-2h11.92a5,5,0,0,0,4.921-4.113l.785-4.354A2.994,2.994,0,0,0,22.713,4.077ZM21.4,6.178l-.786,4.354A3,3,0,0,1,17.657,13H5.419L4.478,5H20.41A1,1,0,0,1,21.4,6.178Z"
     id="path1"
     style="fill:#ffffff" />
  <circle
     cx="7"
     cy="22"
     r="2"
     id="circle1"
     style="fill:#ffffff" />
  <circle
     cx="17"
     cy="22"
     r="2"
     id="circle2"
     style="fill:#ffffff" />
</svg>
