<?xml version="1.0" encoding="UTF-8" standalone="no"?>
<svg
   id="Outline"
   viewBox="0 0 24 24"
   width="512"
   height="512"
   version="1.1"
   sodipodi:docname="stats.svg"
   inkscape:version="1.3.2 (091e20e, 2023-11-25, custom)"
   xmlns:inkscape="http://www.inkscape.org/namespaces/inkscape"
   xmlns:sodipodi="http://sodipodi.sourceforge.net/DTD/sodipodi-0.dtd"
   xmlns="http://www.w3.org/2000/svg"
   xmlns:svg="http://www.w3.org/2000/svg">
  <defs
     id="defs5" />
  <sodipodi:namedview
     id="namedview5"
     pagecolor="#ffffff"
     bordercolor="#000000"
     borderopacity="0.25"
     inkscape:showpageshadow="2"
     inkscape:pageopacity="0.0"
     inkscape:pagecheckerboard="0"
     inkscape:deskcolor="#d1d1d1"
     inkscape:zoom="0.97848663"
     inkscape:cx="846.20471"
     inkscape:cy="497.19637"
     inkscape:window-width="2880"
     inkscape:window-height="1694"
     inkscape:window-x="-11"
     inkscape:window-y="-11"
     inkscape:window-maximized="1"
     inkscape:current-layer="Outline" />
  <path
     d="M23,22H3a1,1,0,0,1-1-1V1A1,1,0,0,0,0,1V21a3,3,0,0,0,3,3H23a1,1,0,0,0,0-2Z"
     id="path1"
     style="fill:#ffffff" />
  <path
     d="M15,20a1,1,0,0,0,1-1V12a1,1,0,0,0-2,0v7A1,1,0,0,0,15,20Z"
     id="path2"
     style="fill:#ffffff" />
  <path
     d="M7,20a1,1,0,0,0,1-1V12a1,1,0,0,0-2,0v7A1,1,0,0,0,7,20Z"
     id="path3"
     style="fill:#ffffff" />
  <path
     d="M19,20a1,1,0,0,0,1-1V7a1,1,0,0,0-2,0V19A1,1,0,0,0,19,20Z"
     id="path4"
     style="fill:#ffffff" />
  <path
     d="M11,20a1,1,0,0,0,1-1V7a1,1,0,0,0-2,0V19A1,1,0,0,0,11,20Z"
     id="path5"
     style="fill:#ffffff" />
</svg>
